<svg width="32" height="32" viewBox="0 0 32 32" fill="none" xmlns="http://www.w3.org/2000/svg">
<path d="M30.481 9.52371C30.2554 9.32702 29.9764 9.20181 29.6795 9.16397C29.3826 9.12614 29.0812 9.17739 28.8135 9.31121L22.5372 12.4362L17.2972 3.73246C17.1625 3.50912 16.9724 3.32437 16.7453 3.19612C16.5182 3.06788 16.2618 3.00049 16.001 3.00049C15.7402 3.00049 15.4838 3.06788 15.2567 3.19612C15.0295 3.32437 14.8394 3.50912 14.7047 3.73246L9.46472 12.44L3.19097 9.31496C2.9239 9.18232 2.6236 9.13152 2.32776 9.16893C2.03192 9.20634 1.75371 9.33029 1.52806 9.52523C1.30241 9.72017 1.13936 9.97742 1.05938 10.2647C0.979392 10.552 0.986035 10.8565 1.07847 11.14L5.70347 25.31C5.74997 25.4523 5.82785 25.5824 5.93136 25.6906C6.03487 25.7989 6.16137 25.8825 6.30151 25.9353C6.44166 25.988 6.59187 26.0087 6.74106 25.9957C6.89025 25.9826 7.0346 25.9363 7.16347 25.86C7.19472 25.8412 10.391 24 16.001 24C21.611 24 24.8072 25.8412 24.836 25.8587C24.9649 25.9357 25.1095 25.9827 25.2591 25.9962C25.4086 26.0097 25.5593 25.9893 25.6999 25.9366C25.8405 25.8839 25.9675 25.8002 26.0713 25.6917C26.1751 25.5832 26.2532 25.4528 26.2997 25.31L30.9247 11.1437C31.0198 10.8601 31.0284 10.5547 30.9494 10.2662C30.8704 9.9777 30.7073 9.71925 30.481 9.52371ZM24.751 23.6037C23.251 22.9675 20.261 22 16.001 22C11.741 22 8.75097 22.9675 7.25097 23.6037L3.33972 11.625L8.97347 14.4337C9.31448 14.6019 9.7061 14.6363 10.0712 14.5301C10.4363 14.4239 10.7484 14.1848 10.946 13.86L16.001 5.45746L21.056 13.8575C21.2537 14.1818 21.5656 14.4204 21.9303 14.5266C22.2951 14.6327 22.6863 14.5987 23.0272 14.4312L28.6622 11.625L24.751 23.6037ZM21.9847 19.6037C21.9439 19.835 21.823 20.0446 21.6431 20.1957C21.4632 20.3468 21.2359 20.4297 21.001 20.43C20.9423 20.4299 20.8838 20.4249 20.826 20.415C17.6318 19.8666 14.3676 19.8666 11.1735 20.415C10.9122 20.461 10.6434 20.4015 10.4261 20.2493C10.2088 20.0972 10.0608 19.865 10.0147 19.6037C9.96864 19.3425 10.0282 19.0736 10.1804 18.8563C10.3325 18.639 10.5647 18.491 10.826 18.445C14.2501 17.8566 17.7494 17.8566 21.1735 18.445C21.4342 18.4907 21.6661 18.638 21.8184 18.8545C21.9707 19.071 22.031 19.3391 21.986 19.6L21.9847 19.6037Z" fill="white"/>
</svg>
