<svg width="32" height="32" viewBox="0 0 32 32" fill="none" xmlns="http://www.w3.org/2000/svg">
<g clip-path="url(#clip0_228_457)">
<path d="M30.0355 22.9645C29.0915 22.02 27.8355 21.5 26.5 21.5H5.5C4.1645 21.5 2.9085 22.02 1.9645 22.9645C1.02 23.9085 0.5 25.1645 0.5 26.5C0.5 27.8355 1.02 29.0915 1.9645 30.0355C2.9085 30.98 4.1645 31.5 5.5 31.5H26.5C27.8355 31.5 29.0915 30.98 30.0355 30.0355C30.98 29.0915 31.5 27.8355 31.5 26.5C31.5 25.1645 30.98 23.9085 30.0355 22.9645ZM28.6215 28.6215C28.055 29.188 27.3015 29.5 26.5 29.5H5.5C4.6985 29.5 3.945 29.188 3.3785 28.6215C2.812 28.0545 2.5 27.3015 2.5 26.5C2.5 25.6985 2.812 24.945 3.3785 24.3785C3.945 23.812 4.6985 23.5 5.5 23.5H26.5C27.3015 23.5 28.055 23.812 28.6215 24.3785C29.188 24.945 29.5 25.6985 29.5 26.5C29.5 27.3015 29.188 28.0545 28.6215 28.6215ZM6.537 13.7475C6.97 14.979 7.636 16.1015 8.516 17.084C8.744 17.3385 9.0845 17.459 9.4235 17.4035L11.547 17.0535C11.934 17.3175 12.344 17.548 12.7725 17.743L13.5155 19.6885C13.639 20.0125 13.9215 20.249 14.262 20.314C14.915 20.439 15.5725 20.501 16.23 20.501C16.8875 20.501 17.545 20.4385 18.1985 20.314C18.539 20.249 18.8215 20.0125 18.945 19.6885L19.688 17.743C20.1165 17.548 20.5265 17.317 20.914 17.0535L23.037 17.4035C23.3755 17.459 23.7165 17.339 23.9445 17.084C24.8245 16.1015 25.4905 14.979 25.9235 13.7475C26.0415 13.412 25.9725 13.039 25.742 12.768L24.385 11.1725C24.424 10.725 24.424 10.2755 24.385 9.82851L25.742 8.23301C25.9725 7.96201 26.0415 7.58902 25.9235 7.25351C25.49 6.02151 24.8245 4.89901 23.9445 3.91701C23.7165 3.66251 23.375 3.54101 23.037 3.59801L20.914 3.94801C20.527 3.68401 20.117 3.45351 19.688 3.25851L18.945 1.31201C18.8215 0.988015 18.539 0.751515 18.1985 0.686515C16.8925 0.437015 15.568 0.437015 14.262 0.686515C13.9215 0.751515 13.639 0.988515 13.5155 1.31201L12.7725 3.25751C12.344 3.45301 11.934 3.68351 11.547 3.94701L9.4235 3.59701C9.0845 3.54051 8.744 3.66201 8.516 3.91601C7.636 4.89801 6.97 6.02051 6.537 7.25251C6.419 7.58801 6.488 7.96102 6.7185 8.23202L8.0755 9.82751C8.0365 10.275 8.0365 10.7245 8.0755 11.1715L6.7185 12.767C6.4885 13.0385 6.419 13.4115 6.537 13.7475ZM10.108 11.3435C10.0255 10.784 10.0255 10.216 10.108 9.65651C10.15 9.37151 10.067 9.08251 9.8805 8.86301L8.6295 7.39201C8.897 6.77552 9.242 6.19652 9.6605 5.66301L11.632 5.98801C11.9035 6.03301 12.183 5.96351 12.402 5.79601C12.863 5.44351 13.3735 5.15701 13.9195 4.94351C14.182 4.84051 14.389 4.63201 14.4895 4.36901L15.1785 2.56551C15.879 2.47751 16.5835 2.47751 17.2835 2.56551L17.9725 4.36901C18.073 4.63251 18.28 4.84101 18.5425 4.94351C19.0885 5.15701 19.599 5.44351 20.0595 5.79601C20.2785 5.96351 20.557 6.03351 20.83 5.98801L22.8015 5.66301C23.2195 6.19652 23.5645 6.77552 23.8325 7.39201L22.5815 8.86301C22.395 9.08251 22.312 9.37151 22.354 9.65651C22.4365 10.216 22.4365 10.784 22.354 11.3435C22.312 11.6285 22.395 11.9175 22.5815 12.137L23.8325 13.608C23.565 14.2245 23.22 14.803 22.8015 15.337L20.83 15.012C20.557 14.966 20.279 15.0365 20.0595 15.204C19.599 15.5565 19.0885 15.843 18.5425 16.0565C18.28 16.159 18.073 16.368 17.9725 16.631L17.2835 18.434C16.5835 18.522 15.8785 18.522 15.1785 18.434L14.4895 16.631C14.389 16.3675 14.182 16.159 13.9195 16.0565C13.3735 15.843 12.863 15.5565 12.402 15.204C12.183 15.0365 11.9035 14.966 11.632 15.012L9.6605 15.337C9.2425 14.803 8.8975 14.2245 8.6295 13.608L9.8805 12.137C10.067 11.9175 10.15 11.6285 10.108 11.3435Z" fill="white"/>
<path d="M16.2308 15C18.7118 15 20.7308 12.981 20.7308 10.5C20.7308 8.019 18.7118 6 16.2308 6C13.7498 6 11.7308 8.019 11.7308 10.5C11.7308 12.981 13.7498 15 16.2308 15ZM16.2308 8C17.6093 8 18.7308 9.1215 18.7308 10.5C18.7308 11.8785 17.6093 13 16.2308 13C14.8523 13 13.7308 11.8785 13.7308 10.5C13.7308 9.1215 14.8523 8 16.2308 8ZM6.01031 25.5H6.00531C5.45331 25.5 5.00781 25.948 5.00781 26.5C5.00781 27.052 5.45781 27.5 6.01031 27.5C6.56281 27.5 7.01031 27.052 7.01031 26.5C7.01031 25.948 6.56281 25.5 6.01031 25.5ZM10.0103 25.5H10.0053C9.45331 25.5 9.00781 25.948 9.00781 26.5C9.00781 27.052 9.45781 27.5 10.0103 27.5C10.5628 27.5 11.0103 27.052 11.0103 26.5C11.0103 25.948 10.5628 25.5 10.0103 25.5ZM14.0103 25.5H14.0053C13.4533 25.5 13.0078 25.948 13.0078 26.5C13.0078 27.052 13.4578 27.5 14.0103 27.5C14.5628 27.5 15.0103 27.052 15.0103 26.5C15.0103 25.948 14.5628 25.5 14.0103 25.5ZM18.0103 25.5H18.0053C17.4533 25.5 17.0078 25.948 17.0078 26.5C17.0078 27.052 17.4578 27.5 18.0103 27.5C18.5628 27.5 19.0103 27.052 19.0103 26.5C19.0103 25.948 18.5628 25.5 18.0103 25.5ZM22.0103 25.5H22.0053C21.4533 25.5 21.0078 25.948 21.0078 26.5C21.0078 27.052 21.4578 27.5 22.0103 27.5C22.5628 27.5 23.0103 27.052 23.0103 26.5C23.0103 25.948 22.5628 25.5 22.0103 25.5ZM26.0103 25.5H26.0053C25.4533 25.5 25.0078 25.948 25.0078 26.5C25.0078 27.052 25.4578 27.5 26.0103 27.5C26.5628 27.5 27.0103 27.052 27.0103 26.5C27.0103 25.948 26.5628 25.5 26.0103 25.5Z" fill="white"/>
</g>
<defs>
<clipPath id="clip0_228_457">
<rect width="32" height="32" fill="white"/>
</clipPath>
</defs>
</svg>
