<svg width="39" height="40" viewBox="0 0 39 40" fill="none" xmlns="http://www.w3.org/2000/svg">
<path d="M27.2979 16.5967C27.2631 15.8074 27.1355 15.2648 26.9527 14.7946C26.764 14.2955 26.4739 13.8487 26.0937 13.4773C25.7222 13.1 25.2725 12.8069 24.7792 12.6212C24.3063 12.4384 23.7665 12.3108 22.9772 12.276C22.1821 12.2382 21.9296 12.2295 19.9129 12.2295C17.8962 12.2295 17.6437 12.2382 16.8515 12.273C16.0623 12.3078 15.5197 12.4356 15.0496 12.6183C14.5504 12.8069 14.1036 13.0971 13.7321 13.4773C13.3549 13.8487 13.0619 14.2985 12.8761 14.7918C12.6933 15.2648 12.5656 15.8045 12.5308 16.5937C12.4931 17.3889 12.4844 17.6413 12.4844 19.658C12.4844 21.6748 12.4931 21.9272 12.5279 22.7194C12.5627 23.5087 12.6904 24.0513 12.8733 24.5214C13.0619 25.0205 13.3549 25.4673 13.7321 25.8388C14.1036 26.216 14.5534 26.5092 15.0467 26.6948C15.5197 26.8777 16.0593 27.0053 16.8487 27.0401C17.6408 27.075 17.8933 27.0836 19.9101 27.0836C21.9268 27.0836 22.1792 27.075 22.9714 27.0401C23.7607 27.0053 24.3033 26.8777 24.7734 26.6948C25.7717 26.3089 26.5609 25.5196 26.9469 24.5214C27.1296 24.0484 27.2573 23.5087 27.2921 22.7194C27.3269 21.9272 27.3357 21.6748 27.3357 19.658C27.3357 17.6413 27.3327 17.3889 27.2979 16.5967ZM25.9603 22.6614C25.9283 23.3868 25.8065 23.7785 25.7049 24.0397C25.4553 24.6868 24.9417 25.2004 24.2946 25.45C24.0334 25.5516 23.6389 25.6734 22.9162 25.7053C22.1328 25.7402 21.8978 25.7488 19.9159 25.7488C17.9339 25.7488 17.696 25.7402 16.9154 25.7053C16.1899 25.6734 15.7982 25.5516 15.537 25.45C15.215 25.331 14.9219 25.1424 14.6839 24.8957C14.4373 24.6549 14.2487 24.3647 14.1297 24.0426C14.0281 23.7815 13.9062 23.3868 13.8744 22.6643C13.8395 21.8808 13.8309 21.6457 13.8309 19.6638C13.8309 17.6819 13.8395 17.444 13.8744 16.6634C13.9062 15.938 14.0281 15.5462 14.1297 15.2851C14.2487 14.9629 14.4373 14.6699 14.6869 14.4319C14.9276 14.1852 15.2178 13.9966 15.54 13.8777C15.8011 13.7762 16.1958 13.6543 16.9183 13.6223C17.7018 13.5875 17.9369 13.5788 19.9187 13.5788C21.9036 13.5788 22.1385 13.5875 22.9192 13.6223C23.6446 13.6543 24.0364 13.7762 24.2975 13.8777C24.6196 13.9966 24.9127 14.1852 25.1506 14.4319C25.3973 14.6728 25.5859 14.9629 25.7049 15.2851C25.8065 15.5462 25.9283 15.9408 25.9603 16.6634C25.9951 17.4469 26.0038 17.6819 26.0038 19.6638C26.0038 21.6457 25.9951 21.8779 25.9603 22.6614Z" fill="white"/>
<path d="M19.9115 15.8418C17.8049 15.8418 16.0957 17.5509 16.0957 19.6576C16.0957 21.7644 17.8049 23.4735 19.9115 23.4735C22.0182 23.4735 23.7273 21.7644 23.7273 19.6576C23.7273 17.5509 22.0182 15.8418 19.9115 15.8418ZM19.9115 22.1329C18.5448 22.1329 17.4363 21.0244 17.4363 19.6576C17.4363 18.2908 18.5448 17.1824 19.9115 17.1824C21.2783 17.1824 22.3867 18.2908 22.3867 19.6576C22.3867 21.0244 21.2783 22.1329 19.9115 22.1329Z" fill="white"/>
<path d="M24.7719 15.6906C24.7719 16.1826 24.373 16.5814 23.881 16.5814C23.389 16.5814 22.9902 16.1826 22.9902 15.6906C22.9902 15.1986 23.389 14.7998 23.881 14.7998C24.373 14.7998 24.7719 15.1986 24.7719 15.6906Z" fill="white"/>
</svg>
