<svg width="40" height="40" viewBox="0 0 40 40" fill="none" xmlns="http://www.w3.org/2000/svg">
<path d="M31.7 8.594L30.872 7.982L31.898 6.578L30.242 6.038L30.548 5.066L32.204 5.606V3.86H33.248V5.606L34.886 5.066L35.21 6.038L33.554 6.578L34.58 7.982L33.752 8.594L32.726 7.19L31.7 8.594Z" fill="white"/>
<path d="M20.47 12.2285H20.4662C16.3711 12.2285 13.041 15.5596 13.041 19.6556C13.041 21.2803 13.5646 22.7861 14.4549 24.0088L13.5293 26.7679L16.3841 25.8553C17.5585 26.6333 18.9595 27.0827 20.47 27.0827C24.5651 27.0827 27.8952 23.7507 27.8952 19.6556C27.8952 15.5605 24.5651 12.2285 20.47 12.2285ZM24.7916 22.7165C24.6124 23.2224 23.9013 23.6421 23.334 23.7646C22.946 23.8472 22.4391 23.9132 20.7327 23.2057C18.5501 22.3015 17.1445 20.0836 17.0349 19.9397C16.93 19.7958 16.153 18.7653 16.153 17.6995C16.153 16.6337 16.6942 16.1147 16.9124 15.8919C17.0916 15.709 17.3877 15.6255 17.6718 15.6255C17.7637 15.6255 17.8463 15.6301 17.9206 15.6338C18.1388 15.6431 18.2483 15.6561 18.3922 16.0005C18.5714 16.4322 19.0077 17.498 19.0597 17.6076C19.1127 17.7171 19.1656 17.8657 19.0913 18.0096C19.0217 18.1581 18.9604 18.224 18.8509 18.3503C18.7413 18.4765 18.6373 18.5731 18.5278 18.7086C18.4275 18.8265 18.3142 18.9528 18.4405 19.171C18.5668 19.3845 19.0031 20.0966 19.6455 20.6685C20.4746 21.4065 21.1467 21.6423 21.3872 21.7426C21.5664 21.8169 21.7799 21.7992 21.9108 21.66C22.077 21.4808 22.2822 21.1837 22.4911 20.8913C22.6396 20.6815 22.8271 20.6555 23.0239 20.7297C23.2245 20.7994 24.2856 21.3239 24.5038 21.4325C24.722 21.5421 24.8659 21.5941 24.9188 21.686C24.9708 21.7779 24.9708 22.2096 24.7916 22.7165Z" fill="white"/>
</svg>
