<svg width="20" height="20" viewBox="0 0 20 20" fill="none" xmlns="http://www.w3.org/2000/svg">
<path d="M2.49951 10C2.49951 9.83426 2.56536 9.67529 2.68257 9.55808C2.79978 9.44087 2.95875 9.37502 3.12451 9.37502L15.3659 9.37502L10.8073 4.81721C10.7493 4.75914 10.7032 4.6902 10.6718 4.61433C10.6403 4.53846 10.6242 4.45714 10.6242 4.37502C10.6242 4.2929 10.6403 4.21158 10.6718 4.13571C10.7032 4.05984 10.7493 3.9909 10.8073 3.93283C10.8654 3.87476 10.9343 3.8287 11.0102 3.79727C11.0861 3.76585 11.1674 3.74967 11.2495 3.74967C11.3316 3.74967 11.4129 3.76585 11.4888 3.79727C11.5647 3.8287 11.6336 3.87476 11.6917 3.93283L17.3167 9.55783C17.3748 9.61588 17.4209 9.68481 17.4524 9.76068C17.4838 9.83656 17.5 9.91788 17.5 10C17.5 10.0822 17.4838 10.1635 17.4524 10.2394C17.4209 10.3152 17.3748 10.3842 17.3167 10.4422L11.6917 16.0672C11.5744 16.1845 11.4154 16.2504 11.2495 16.2504C11.0837 16.2504 10.9246 16.1845 10.8073 16.0672C10.69 15.9499 10.6242 15.7909 10.6242 15.625C10.6242 15.4592 10.69 15.3001 10.8073 15.1828L15.3659 10.625L3.12451 10.625C2.95875 10.625 2.79978 10.5592 2.68257 10.442C2.56536 10.3248 2.49951 10.1658 2.49951 10Z" fill="white"/>
</svg>
