<svg width="20" height="20" viewBox="0 0 20 20" fill="none" xmlns="http://www.w3.org/2000/svg">
<path d="M2.50048 10C2.50048 9.83426 2.56633 9.67529 2.68354 9.55808C2.80075 9.44087 2.95972 9.37502 3.12549 9.37502L15.3669 9.37502L10.8083 4.81721C10.7502 4.75914 10.7042 4.6902 10.6727 4.61433C10.6413 4.53846 10.6251 4.45714 10.6251 4.37502C10.6251 4.2929 10.6413 4.21158 10.6727 4.13571C10.7042 4.05984 10.7502 3.9909 10.8083 3.93283C10.8664 3.87476 10.9353 3.8287 11.0112 3.79727C11.087 3.76585 11.1684 3.74967 11.2505 3.74967C11.3326 3.74967 11.4139 3.76585 11.4898 3.79727C11.5657 3.8287 11.6346 3.87476 11.6927 3.93283L17.3177 9.55783C17.3758 9.61588 17.4219 9.68481 17.4533 9.76068C17.4848 9.83656 17.501 9.91788 17.501 10C17.501 10.0822 17.4848 10.1635 17.4533 10.2394C17.4219 10.3152 17.3758 10.3842 17.3177 10.4422L11.6927 16.0672C11.5754 16.1845 11.4163 16.2504 11.2505 16.2504C11.0846 16.2504 10.9256 16.1845 10.8083 16.0672C10.691 15.9499 10.6251 15.7909 10.6251 15.625C10.6251 15.4592 10.691 15.3001 10.8083 15.1828L15.3669 10.625L3.12549 10.625C2.95972 10.625 2.80075 10.5592 2.68354 10.442C2.56633 10.3248 2.50048 10.1658 2.50048 10Z" fill="#004A5E"/>
</svg>
