<svg width="41" height="41" viewBox="0 0 41 41" fill="none" xmlns="http://www.w3.org/2000/svg">
<path d="M19.7956 35.3796C18.65 35.2246 17.5466 34.9046 16.4432 34.5735L11.9224 33.022L9.46323 31.9897C6.51687 30.6104 5.65902 29.2261 5.44655 25.8436L5.42849 24.9747C5.37762 23.2886 5.36619 19.2746 6.32822 17.8553C6.67543 17.3432 7.40644 17.1917 7.96443 17.0295L9.95145 16.5054C10.5378 16.3489 11.1263 16.141 11.7206 16.0251L11.5831 15.142C11.5432 14.6855 11.5526 14.2174 11.5519 13.7593L11.5696 12.0931C11.5782 11.9387 11.6086 11.7928 11.6242 11.6412C11.7372 10.539 11.8542 8.84022 12.9978 8.32406C13.4959 8.0992 14.0272 7.92271 14.5424 7.74097L19.9192 5.66746C20.3492 5.50611 20.7567 5.36823 21.2186 5.33415C22.7655 5.23613 25.4541 6.93538 26.8095 7.66147L28.1059 8.33419C28.4094 8.48403 28.738 8.62138 29.0258 8.7996C29.8047 9.28193 29.8316 11.7189 29.8652 12.5389L29.9147 14.3933C29.9158 14.9196 29.9577 15.4632 29.8303 15.9765C29.9087 16.031 30.0263 16.0579 30.1168 16.0861L32.793 16.894C33.2589 17.0403 33.7756 17.188 34.2044 17.4213C35.1868 17.9558 35.3467 20.0289 35.4497 20.9982L35.5626 22.2625L35.5617 25.2744L35.378 27.1568C35.1302 28.9628 34.4885 29.639 32.9244 30.597L30.942 31.7062C29.1478 32.6342 27.315 33.4683 25.4281 34.191C23.6112 34.8869 21.7696 35.5389 19.7956 35.3796ZM21.253 6.35262C20.8369 6.41065 20.4387 6.57343 20.0515 6.73025L13.6363 9.20819L16.4559 10.8501L16.7403 10.6732C17.389 10.3155 18.1256 10.0661 18.8111 9.78456L23.9597 7.73969C24.1397 7.67037 24.3329 7.61098 24.5063 7.52745C23.8116 7.16428 22.0623 6.29786 21.253 6.35262ZM25.6211 8.21836L17.5399 11.4799C18.3814 11.8308 19.2002 12.3364 20.0928 12.5437C21.119 12.7882 22.2895 12.2756 23.2258 11.9146C24.8127 11.3028 26.3426 10.5949 27.7936 9.70378L28.115 9.48987L26.815 8.81965C26.5924 8.7003 25.834 8.17211 25.6211 8.21836ZM12.9107 9.94626C12.6513 11.2827 12.2304 15.2299 12.9911 16.3535C13.9167 17.7208 17.0894 19.7903 18.4908 20.5977L19.4989 21.1398C19.6324 21.2066 19.8666 21.2623 19.9717 21.3545L19.9732 19.2441L19.9976 13.5714C19.3745 13.4261 18.8247 13.176 18.2314 12.9521C18.0586 13.4564 18.2536 13.9969 18.1449 14.4844C18.0677 14.8306 17.6691 15.1217 17.3177 14.9794C16.9659 14.8369 16.8403 14.4478 16.4261 14.4322C15.0872 14.3818 15.303 12.8188 15.6387 11.9121C15.7018 11.7415 15.8304 11.6784 15.6706 11.6044L15.2121 11.3775C14.4171 10.9575 13.6552 10.4492 12.9107 9.94626ZM28.5986 10.4005L27.7453 10.9407C26.77 11.5055 25.7555 11.977 24.7195 12.4168L23.0387 13.0984C22.6103 13.2545 22.1712 13.4033 21.7258 13.5018L21.2148 13.5938C21.1486 13.6031 21.045 13.602 20.99 13.6372L21.0072 21.4571C21.0866 21.4362 21.1632 21.4161 21.245 21.4065C22.0394 21.1346 22.7958 20.7099 23.5073 20.2812L24.8145 19.465L26.4187 18.275C27.1845 17.6819 28.3837 16.7516 28.8094 15.8645C28.9542 15.5628 28.8964 15.2895 28.8956 14.9634L28.8876 13.3033C28.8828 13.1388 28.845 12.9764 28.8401 12.81L28.7644 11.228C28.7431 10.9819 28.728 10.6761 28.6405 10.4445L28.5986 10.4005ZM16.6477 12.1287C16.5341 12.4461 16.4302 12.823 16.4094 13.1603C16.679 13.2395 16.9272 13.3172 17.1292 13.524C17.1726 13.0642 17.2543 12.9312 17.3675 12.5376L16.6477 12.1287ZM29.3971 16.9471C28.6532 17.7898 27.7879 18.5183 26.9089 19.2155L26.2459 19.7071L26.7191 19.884C26.8728 19.9463 28.1667 20.5076 28.2271 20.4969C28.3184 20.4806 28.4695 20.3815 28.5589 20.3408L29.5417 19.9028L33.2215 18.142L29.3971 16.9471ZM12.0849 17.0201L8.13836 18.0395C8.07417 18.0558 7.96263 18.0737 7.91151 18.1152L9.67137 19.0604L16.4161 22.2136L18.436 22.9393C20.106 23.4854 20.689 23.5636 22.4341 23.0545L25.2257 22.1332C25.5502 22.022 25.995 21.8171 26.3262 21.9985C26.8049 22.2608 27.0634 22.9506 27.1945 23.4463L27.2105 23.5081C27.3291 23.9824 27.3414 24.408 27.3463 24.8963L27.3597 24.8731C27.4402 24.7385 27.6773 24.5909 27.8098 24.5129C28.3235 24.2101 28.7956 24.2257 29.3715 24.2342C29.3662 23.4987 29.1951 22.1506 28.4465 21.7591C28.109 21.5826 27.7246 21.452 27.3735 21.2986L25.3061 20.4045C24.5225 20.8781 23.755 21.3792 22.9384 21.7958C20.9105 22.83 20.2051 22.7182 18.3354 21.6787C16.6509 20.7421 14.3864 19.2487 12.9755 17.8921L12.487 17.3794C12.3865 17.2642 12.2511 17.0013 12.0849 17.0201ZM6.99875 18.7064C6.67068 19.7221 6.57997 20.8103 6.50668 21.8703L6.44621 22.4506L6.44647 25.3462L6.5079 25.9901C6.7416 28.868 7.26025 29.8368 10.0174 31.0983C11.7793 31.9045 13.622 32.5816 15.4661 33.1742L18.6764 34.1115L19.8373 34.3426C19.9039 34.3521 19.9819 34.3521 20.0439 34.3778L20.0523 30.4806L20.0523 24.4064C19.3021 24.3205 18.601 24.1035 17.8886 23.8642L16.5194 23.3895C16.1173 23.2422 15.7139 23.066 15.2998 22.9568C14.3523 24.0226 15.3126 26.2878 13.9924 26.3621C13.243 26.4044 13.0979 25.2655 12.3335 25.2856C11.8681 25.2978 11.3779 25.5767 10.9713 25.209C10.6818 24.9473 10.5991 24.5128 10.59 24.1412C10.5636 23.0673 10.8437 21.9524 11.5422 21.119C10.0081 20.3794 8.40121 19.6823 6.99875 18.7064ZM34.0275 18.7903C32.9349 19.574 30.6848 20.5974 29.3504 21.0819L29.3744 21.1072C30.1372 21.9138 30.4273 23.1768 30.3924 24.25C30.3755 24.7672 30.0924 25.2585 29.5498 25.3282L29.513 25.3331C28.9006 25.4049 28.5496 25.1082 28.0382 25.6537C27.7858 25.9229 27.5435 26.2252 27.1472 26.2562C26.3933 26.3151 26.3287 25.4594 26.3208 24.938C26.3116 24.3291 26.2828 23.522 25.9207 23.0092C24.9869 23.3157 24.0741 23.6631 23.1223 23.9155L21.7473 24.2569C21.531 24.3029 21.2933 24.314 21.0833 24.3729L21.0839 30.6002L21.083 34.3564C23.8325 34.0649 28.3339 31.9084 30.7215 30.6563C31.3853 30.3082 32.051 29.9487 32.6795 29.5397C34.4623 28.3795 34.4105 27.3343 34.5088 25.3351L34.5096 22.3527C34.4615 21.3374 34.3668 19.7637 34.0275 18.7903ZM12.4307 21.6515C11.8393 22.2387 11.6141 23.2238 11.612 24.0353L11.6132 24.311C12.3171 24.2654 12.9143 24.1754 13.4926 24.6773L13.666 24.8452L13.7422 24.9267C13.7931 24.7918 13.7571 24.5383 13.7673 24.3872C13.8115 23.7273 14.0163 23.0049 14.419 22.4724L12.8213 21.7535C12.7086 21.7052 12.5566 21.6096 12.4307 21.6515Z" fill="white"/>
</svg>
