<svg width="20" height="20" viewBox="0 0 20 20" fill="none" xmlns="http://www.w3.org/2000/svg">
<path d="M4.16667 1.66675C3.24617 1.66675 2.5 2.41675 2.5 3.33341V10.0001V13.3334V18.3334C2.5 19.2501 3.24617 20.0001 4.16667 20.0001H15.8333C16.7542 20.0001 17.5 19.2501 17.5 18.3334V13.3334V10.0001V6.66675L12.5 1.66675H4.16667Z" fill="#C0392B"/>
<path d="M4.16667 0.833374C3.24617 0.833374 2.5 1.58337 2.5 2.50004V9.16671V12.5V17.5C2.5 18.4167 3.24617 19.1667 4.16667 19.1667H15.8333C16.7542 19.1667 17.5 18.4167 17.5 17.5V12.5V9.16671V5.83337L12.5 0.833374H4.16667Z" fill="#E74C3C"/>
<path d="M17.5 5.83337L12.5 0.833374V4.16671C12.5 5.08337 13.2458 5.83337 14.1667 5.83337H17.5Z" fill="#C0392B"/>
<path d="M15.9263 9.16675H15.6847C15.6097 9.25008 15.1838 9.83341 14.9997 10.0001C14.9497 10.0834 14.8747 10.1667 14.8322 10.1667C14.213 10.9167 12.8963 12.1668 12.1063 12.8334C12.003 12.9168 11.903 13.0001 11.8847 13.0001C11.8297 13.0834 11.303 13.4167 11.0663 13.5834C10.3122 14.0834 9.42716 14.5001 8.73966 14.6667C7.38291 15.0001 6.32433 14.9167 4.95 14.2501C4.53466 14.0834 3.94291 13.75 3.6185 13.5C3.30016 13.25 3.33375 13.2501 3.33425 13.6668V14.0834L3.54908 14.1667C3.82467 14.3334 4.4195 14.6667 4.80733 14.8334C5.10283 15 5.19492 15.0834 5.02958 15.0834C4.87725 15.0001 4.01275 15.0001 3.68058 15.0834H3.34725C3.33958 15.0834 3.33333 15.2501 3.33333 15.4167V15.7501H3.44441C3.92241 15.5834 4.94833 15.5834 5.42591 15.6667C5.98825 15.75 6.38391 15.8334 6.85916 16.0834C7.76591 16.5 8.518 17.3334 8.8455 18.1667L8.91216 18.3334H9.27883H9.6455L9.6255 18.2501C9.508 17.7501 9.178 17.1667 8.76966 16.7501C8.50133 16.4167 8.02741 16.0834 7.84066 15.9167H7.77766C7.74733 15.8334 7.43058 15.6667 7.29525 15.6667C7.21825 15.5834 7.1555 15.5834 7.1555 15.5834C7.1555 15.5 7.21383 15.5 7.28508 15.5834C7.463 15.5834 8.1795 15.5001 8.50383 15.4167C9.40216 15.2501 10.2522 14.9167 11.1113 14.4167C11.4197 14.25 12.1197 13.6667 12.3997 13.5C12.608 13.25 12.6747 13.2501 12.5897 13.3334C12.5597 13.4167 12.5022 13.5 12.4605 13.5834C12.4197 13.6667 12.348 13.7501 12.3022 13.8334C11.6538 14.8334 11.238 16.0834 11.1255 17.5001C11.1097 17.7501 11.0963 18 11.0963 18.0834V18.3334H13.0397H14.983L14.9197 18.2501C14.5697 17.7501 14.1355 16.6667 13.9897 15.9167C13.8697 15.3334 13.8338 14.4167 13.9088 13.9167C14.1272 12.5834 14.8713 11.4167 16.1497 10.6667C16.2813 10.5834 16.4513 10.5001 16.5272 10.4167L16.6663 10.3334V10.0834C16.6663 9.91673 16.6563 9.75004 16.6438 9.75004C16.3405 9.91671 15.6655 10.3334 15.3555 10.5001C15.1897 10.6667 15.1797 10.6667 15.3355 10.5001C15.5588 10.2501 15.9438 9.83337 16.353 9.33337L16.5438 9.16675H16.1263H15.9263Z" fill="#ECF0F1"/>
</svg>
