<svg width="39" height="39" viewBox="0 0 39 39" fill="none" xmlns="http://www.w3.org/2000/svg">
<path d="M22.863 25.6538C22.4574 24.9908 21.5838 24.7724 20.9208 25.178C20.2578 25.5836 20.0472 26.4572 20.445 27.1202C20.64 27.44 20.952 27.6662 21.3186 27.7598C21.4278 27.791 21.5448 27.7988 21.654 27.7988C21.9114 27.7988 22.161 27.7286 22.3872 27.596C23.0502 27.1904 23.2686 26.3168 22.863 25.6538ZM21.732 26.5196L21.5214 26.4728C21.4746 26.4026 21.498 26.309 21.5682 26.2622C21.5916 26.2466 21.6228 26.2388 21.6462 26.2388C21.7008 26.2388 21.7476 26.2622 21.7788 26.309C21.8256 26.3792 21.8022 26.4728 21.732 26.5196Z" fill="#004A5E"/>
<path d="M9.86688 10.1549L10.8809 10.1705C10.9823 10.1705 11.0759 10.2251 11.1305 10.3109L18.4235 22.2917C17.5109 23.0093 16.8479 23.9921 16.5671 25.1465C16.2395 26.5115 16.4501 27.9155 17.1833 29.1089C18.1661 30.7235 19.8899 31.6127 21.6605 31.6127C22.5887 31.6127 23.5325 31.3631 24.3827 30.8483C25.5761 30.1229 26.4185 28.9763 26.7461 27.6191C27.0269 26.4725 26.8865 25.2947 26.4029 24.2339L35.4119 18.7505C35.7785 18.5243 36.0359 18.1499 36.1061 17.7287L36.6131 14.8037C36.7223 14.5385 36.4649 14.3201 35.9579 14.2655C35.4431 14.2031 35.3729 14.5931 35.3729 14.5931L34.8659 17.5181C34.8581 17.5883 34.8113 17.6429 34.7567 17.6819L25.7321 23.1653C25.5449 22.9313 25.3577 22.7129 25.1393 22.5101L32.8145 17.8379C33.7271 17.2763 34.0235 16.0829 33.4697 15.1703L30.3029 9.84292V9.83512C29.7491 8.92252 28.5479 8.64172 27.6353 9.19552L23.4545 11.7383C23.4155 11.6135 23.3843 11.4809 23.3141 11.3717L21.3017 8.11912C21.0833 7.76812 20.7401 7.51852 20.3345 7.41712C19.9289 7.32352 19.5155 7.38592 19.1567 7.60432L15.9041 9.61672C15.1709 10.0691 14.9447 11.0285 15.3971 11.7617L17.4095 15.0143C17.5343 15.2171 17.7137 15.3731 17.9087 15.4979C17.6435 16.0673 17.6591 16.7459 18.0023 17.3153L20.3735 21.3167C20.0693 21.3947 19.7729 21.4883 19.4921 21.6131L12.2147 9.65572C11.9339 9.19552 11.4425 8.91472 10.9043 8.90692L9.85908 8.89132C9.68748 8.31412 9.18048 7.89292 8.55648 7.89292H3.74388C2.97948 7.89292 2.36328 8.50912 2.36328 9.27352V9.82732C2.36328 10.5917 2.97948 11.2079 3.74388 11.2079H8.55648C9.19608 11.2001 9.71868 10.7477 9.86688 10.1549ZM25.5137 27.3305C25.2641 28.3601 24.6245 29.2337 23.7197 29.7797C21.8477 30.9185 19.3985 30.3257 18.2597 28.4615C17.1209 26.5895 17.7137 24.1325 19.5935 22.9937C20.1473 22.6505 20.7635 22.4633 21.4265 22.4243C21.5669 22.4165 21.7073 22.4243 21.8399 22.4321C21.9335 22.4399 22.0193 22.4399 22.1129 22.4477C22.2065 22.4555 22.3001 22.4789 22.3937 22.4945C22.4873 22.5101 22.5731 22.5257 22.6667 22.5491C22.7759 22.5803 22.8851 22.6193 22.9943 22.6583C23.0645 22.6817 23.1347 22.7051 23.1971 22.7285C23.3687 22.7987 23.5403 22.8845 23.7041 22.9859C24.2579 23.3213 24.7103 23.7737 25.0457 24.3275C25.5995 25.2323 25.7633 26.3009 25.5137 27.3305ZM16.4657 11.1065C16.3799 10.9661 16.4267 10.7867 16.5593 10.7009L19.8119 8.68852C19.8665 8.65732 19.9211 8.64172 19.9679 8.64172C19.9991 8.64172 20.0225 8.64952 20.0381 8.64952C20.0849 8.65732 20.1629 8.68852 20.2253 8.78212L22.2377 12.0347C22.2923 12.1283 22.2845 12.2141 22.2767 12.2609C22.2689 12.3077 22.2377 12.3857 22.1441 12.4481L18.8915 14.4605C18.7979 14.5151 18.7121 14.5073 18.6653 14.4995C18.6185 14.4917 18.5327 14.4605 18.4781 14.3669L16.4657 11.1065ZM19.3127 15.7397L28.2827 10.2797C28.6025 10.0847 29.0237 10.1783 29.2187 10.4981L32.3855 15.8255C32.5883 16.1531 32.4869 16.5665 32.1593 16.7693L24.0161 21.7223C23.9771 21.6989 23.9303 21.6911 23.8913 21.6755C23.5793 21.5273 23.2595 21.4025 22.9319 21.3245C22.9241 21.3245 22.9163 21.3167 22.9085 21.3167C22.5653 21.2309 22.2221 21.1997 21.8789 21.1841C21.8321 21.1841 21.7931 21.1685 21.7463 21.1685L19.0865 16.6835C18.8915 16.3559 18.9929 15.9347 19.3127 15.7397ZM3.62688 9.81952V9.26572C3.62688 9.20332 3.68148 9.14872 3.74388 9.14872H8.55648C8.61888 9.14872 8.67348 9.20332 8.67348 9.26572V9.81952C8.67348 9.88192 8.61888 9.93652 8.55648 9.93652H3.74388C3.67368 9.93652 3.62688 9.88972 3.62688 9.81952Z" fill="#004A5E"/>
</svg>
